<?xml version="1.0" encoding="UTF-8" standalone="no"?>
<svg
   xmlns:dc="http://purl.org/dc/elements/1.1/"
   xmlns:cc="http://creativecommons.org/ns#"
   xmlns:rdf="http://www.w3.org/1999/02/22-rdf-syntax-ns#"
   xmlns:svg="http://www.w3.org/2000/svg"
   xmlns="http://www.w3.org/2000/svg"
   xmlns:sodipodi="http://sodipodi.sourceforge.net/DTD/sodipodi-0.dtd"
   xmlns:inkscape="http://www.inkscape.org/namespaces/inkscape"
   id="e7334088-53de-4589-99a2-090044ddfc90"
   data-name="Layer 1"
   width="673.46143"
   height="350.02515"
   viewBox="0 0 673.46141 350.02514"
   version="1.1"
   sodipodi:docname="undraw_version_control_re_mg66.svg"
   inkscape:version="1.0.1 (3bc2e813f5, 2020-09-07)">
  <metadata
     id="metadata57">
    <rdf:RDF>
      <cc:Work
         rdf:about="">
        <dc:format>image/svg+xml</dc:format>
        <dc:type
           rdf:resource="http://purl.org/dc/dcmitype/StillImage" />
        <dc:title></dc:title>
      </cc:Work>
    </rdf:RDF>
  </metadata>
  <defs
     id="defs55" />
  <sodipodi:namedview
     pagecolor="#ffffff"
     bordercolor="#666666"
     borderopacity="1"
     objecttolerance="10"
     gridtolerance="10"
     guidetolerance="10"
     inkscape:pageopacity="0"
     inkscape:pageshadow="2"
     inkscape:window-width="1024"
     inkscape:window-height="578"
     id="namedview53"
     showgrid="false"
     inkscape:zoom="0.45773265"
     inkscape:cx="830.29524"
     inkscape:cy="256.16562"
     inkscape:window-x="-8"
     inkscape:window-y="-8"
     inkscape:window-maximized="1"
     inkscape:current-layer="layer5"
     inkscape:document-rotation="0" />
  <g
     id="f9b32178-6d95-472d-b482-6662972666de"
     data-name="Group 100"
     transform="matrix(0.7042652,0,0,0.70265208,74.455484,-59.210205)">
    <path
       id="f4b94a19-cbe0-459a-95a6-6ea3b3d72055"
       data-name="Path 1465"
       d="m 675.14672,628.10046 a 11.49,11.49 0 1 0 11.49,11.49 v 0 a 11.49,11.49 0 0 0 -11.49,-11.49 z m 0,18.561 a 7.071,7.071 0 1 1 7.071,-7.071 v 6e-5 a 7.071,7.071 0 0 1 -7.071,7.07091 z"
       transform="translate(-113.2693,-156.48744)"
       fill="#e4e4e4" />
    <path
       id="abc0e0b3-f22e-4bee-9929-c6879640924e"
       data-name="Path 1467"
       d="m 630.95367,619.26144 h 44.193 v 43.739 a 5.757,5.757 0 0 1 -5.757,5.757 h -32.679 a 5.757,5.757 0 0 1 -5.757,-5.757 z"
       transform="translate(-113.2693,-156.48744)"
       fill="#e4e4e4" />
  </g>
  <path
     id="e24b6f19-a0a0-4e73-9cfc-bbb7635ad236"
     data-name="Path 944"
     d="M 554.154,301.44074 H 86.355004 a 0.70849078,0.70686799 0 0 1 0,-1.40531 H 554.154 a 0.70849078,0.70686799 0 0 1 0,1.40531 z"
     fill="#cacaca"
     style="stroke-width:0.703458" />
  <ellipse
     id="a67a4451-c7cc-402c-b29d-5a705f3c9418"
     data-name="Ellipse 264"
     cx="136.03601"
     cy="51.946541"
     fill="#3475dd"
     rx="12.114769"
     ry="12.087021"
     style="stroke-width:0.703458" />
  <g
     inkscape:groupmode="layer"
     id="layer4"
     inkscape:label="git">
    <path
       d="m 485.76706,88.664486 h -175.9908 a 3.5253614,3.5172866 0 0 1 -3.52133,-3.513253 V 52.056256 h 1.40853 v 33.094977 a 2.1151056,2.110261 0 0 0 2.1128,2.107952 h 175.9908 a 2.1151056,2.110261 0 0 0 2.11279,-2.107952 V 51.825009 h 1.40854 v 33.326224 a 3.5253614,3.5172866 0 0 1 -3.52133,3.513253 z"
       fill="#3f3d56"
       id="path32"
       style="stroke-width:0.703458" />
    <rect
       x="136.00604"
       y="51.353611"
       width="413.55859"
       height="1.4053041"
       fill="#3f3d56"
       id="rect34"
       style="stroke-width:0.703458" />
    <ellipse
       id="abdb3fbf-f68e-433e-a33f-153626b38c76"
       data-name="Ellipse 266"
       cx="259.14508"
       cy="51.946541"
       fill="#3475dd"
       rx="12.114769"
       ry="12.087021"
       style="stroke-width:0.703458" />
    <ellipse
       id="ac293633-0933-4e21-a8aa-bc27ca4fbccc"
       data-name="Ellipse 268"
       cx="342.69357"
       cy="87.473328"
       fill="#3f3d56"
       rx="12.114769"
       ry="12.087021"
       style="stroke-width:0.703458" />
    <ellipse
       id="a0cd768d-b738-4d4b-9ab3-78ab535c7573"
       data-name="Ellipse 269"
       cx="406.20911"
       cy="87.473328"
       fill="#cccccc"
       rx="12.114769"
       ry="12.087021"
       style="stroke-width:0.703458" />
    <ellipse
       id="b9eb3d2e-31e0-4fe2-be5c-79abb86bc227"
       data-name="Ellipse 270"
       cx="375.43057"
       cy="51.946541"
       fill="#3475dd"
       rx="12.114769"
       ry="12.087021"
       style="stroke-width:0.703458" />
    <ellipse
       id="aa04baac-fce0-420a-b86a-4a97f3079928"
       data-name="Ellipse 271"
       cx="547.90436"
       cy="51.946541"
       fill="#3475dd"
       rx="12.114769"
       ry="12.087021"
       style="stroke-width:0.703458" />
    <ellipse
       id="e92cf92c-058e-415c-ba96-766a57ee18d9"
       data-name="Ellipse 272"
       cx="488.58411"
       cy="51.946541"
       fill="#3475dd"
       rx="12.114769"
       ry="12.087021"
       style="stroke-width:0.703458" />
    <path
       d="m 173.60342,52.758906 a 0.70430041,0.7026872 0 0 1 -0.70425,-0.70265 V 17.371724 a 3.5253614,3.5172866 0 0 1 3.52132,-3.51326 h 34.27997 a 0.70426671,0.70265359 0 0 1 0,1.405307 h -34.27997 a 2.1151056,2.110261 0 0 0 -2.1128,2.107953 v 34.684532 a 0.70430745,0.70269423 0 0 1 -0.70427,0.70265 z"
       fill="#3f3d56"
       id="path46"
       style="stroke-width:0.703458" />
    <ellipse
       id="b0a7c1c1-8f27-441f-a84a-e44462cc473e"
       data-name="Ellipse 265"
       cx="212.31146"
       cy="14.298433"
       fill="#e6e6e6"
       rx="12.114769"
       ry="12.087021"
       style="stroke-width:0.703458" />
    <path
       d="m 444.74552,52.056256 h -1.40854 V 17.371724 a 3.5253614,3.5172866 0 0 1 3.52133,-3.51326 h 34.27996 v 1.405307 h -34.27996 a 2.1151056,2.110261 0 0 0 -2.11279,2.107953 z"
       fill="#3f3d56"
       id="path49"
       style="stroke-width:0.703458" />
    <ellipse
       id="b3140cf1-cdb8-48ff-81af-ce41ed4f5739"
       data-name="Ellipse 265"
       cx="482.74927"
       cy="14.298433"
       fill="#e6e6e6"
       rx="12.114769"
       ry="12.087021"
       style="stroke-width:0.703458" />
  </g>
  <g
     inkscape:groupmode="layer"
     id="layer5"
     inkscape:label="person"
     style="display:inline">
    <polygon
       points="167.759,510.228 89.41,494.381 85.302,514.694 161.695,540.208 "
       fill="#ffb6b6"
       id="polygon6"
       transform="matrix(0.7042652,0,0,0.70265208,150.51612,-59.210205)" />
    <path
       d="m 218.89345,285.46984 -5.69835,28.10815 -2.3e-4,9.5e-4 a 18.318395,18.276437 0 0 1 -21.58556,14.28878 l -0.58342,-0.11776 9.32998,-46.0211 z"
       fill="#2f2e41"
       id="path8"
       style="stroke-width:0.703458" />
    <ellipse
       id="fd4e5ab9-ffc8-4bbb-9267-3af70c31dae1"
       data-name="Ellipse 276"
       cx="274.4523"
       cy="55.120426"
       fill="#feb8b8"
       rx="36.530937"
       ry="36.447266"
       style="stroke-width:0.703458" />
    <path
       id="a8c9bbe2-1461-49cf-8211-f8d251166dc5"
       data-name="Path 1461"
       d="M 308.57254,23.676731 A 42.190514,42.093876 0 0 0 284.57044,5.3712426 l -4.48476,3.265223 V 4.3966638 a 38.835295,38.746343 0 0 0 -7.25394,-0.4215914 l -3.86923,3.492884 V 4.2652678 A 41.787617,41.691903 0 0 0 240.13553,21.372739 c -8.40259,12.085619 -9.82097,28.899378 -1.55642,41.081954 2.26844,-6.956248 5.02211,-13.483188 7.29125,-20.438736 a 20.634386,20.587123 0 0 0 5.37566,0.02597 l 2.76002,-6.425758 0.77117,6.153824 c 8.5554,-0.743406 21.24485,-2.376369 29.35518,-3.872312 l -0.78878,-4.721116 4.71858,3.922908 c 2.48464,-0.570555 3.96008,-1.088416 3.83824,-1.484003 6.03204,9.702216 13.41414,15.898902 19.44547,25.601128 2.29099,-13.680626 4.92778,-25.055881 -2.77336,-37.539895 z"
       fill="#2f2e41"
       style="stroke-width:0.703458" />
    <ellipse
       id="f6be96d1-713f-4c17-812c-ecd79c56fe95"
       data-name="Ellipse 260"
       cx="286.3382"
       cy="267.37332"
       rx="94.061653"
       ry="26.25038"
       fill="#2f2e41"
       style="stroke-width:0.703458" />
    <path
       d="m 353.01998,148.84581 c -1.25619,-7.54017 -2.55194,-15.22507 -6.06432,-22.0176 -2.30847,-4.4492 -5.97288,-8.689 -10.91268,-9.56872 a 10.556682,10.532502 0 0 1 -2.84147,-0.65627 c -1.44739,-0.69563 -20.89791,-11.77364 -23.98939,-13.70313 -2.65437,-1.6564 -6.84458,-4.723391 -8.95737,-4.723391 -2.12552,-0.0466 -10.2758,1.845931 -42.08707,-0.635062 a 114.89459,114.63143 0 0 0 -15.50105,7.603903 c -0.10247,-0.0674 -33.01725,17.56725 -34.25384,17.52084 -2.34182,-0.0984 -4.51857,1.39758 -5.86108,3.28142 -1.34216,1.88381 -1.97181,4.21592 -2.63102,6.47073 7.18913,15.97339 13.76687,31.96715 20.95671,47.94055 a 4.0997742,4.0903837 0 0 1 0.51994,1.96742 4.8126525,4.8016292 0 0 1 -0.89442,1.96742 c -3.5258,5.65073 -3.41369,12.75806 -3.02854,19.39952 0.38548,6.64147 0.8621,13.65675 -2.1128,19.60962 -0.80915,1.63437 -1.86142,3.13031 -2.63103,4.76468 -1.80227,3.70157 -2.45357,15.54056 -1.40095,19.51757 l 131.88534,3.76958 c -2.83564,-7.77697 9.80504,-102.50908 9.80504,-102.50908 z"
       fill="#3475dd"
       id="path13"
       style="stroke-width:0.703458" />
    <path
       id="eb41f72e-aba6-4a16-bf55-c7027d2f1a4b"
       data-name="Path 1421"
       d="m 188.52065,181.06728 a 23.28488,23.231547 0 0 0 -0.0788,5.72942 l 1.89024,27.08443 c 0.17748,2.55274 0.35214,5.09915 0.59229,7.64556 0.45354,4.94174 1.13105,9.84415 1.97194,14.73953 a 2.6311348,2.6251082 0 0 0 2.69664,2.55273 c 8.32089,1.75663 16.91785,1.68637 25.40988,1.20787 12.95848,-0.72163 46.11106,-2.08689 48.13652,-4.712 2.02547,-2.6251 0.84513,-6.87123 -1.79587,-8.99394 -2.64099,-2.12271 -46.39066,-7.29775 -46.39066,-7.29775 0.42749,-3.37975 1.717,-6.56277 2.94031,-9.77178 2.19732,-5.69148 4.24954,-11.56986 4.28898,-17.66678 0.0394,-6.09691 -2.2628,-12.50721 -7.26872,-16.00009 -4.11784,-2.86752 -9.41955,-3.39943 -14.43743,-3.28138 -3.65092,0.10469 -9.95902,-0.768 -13.29372,0.65628 -2.63888,1.15939 -4.16855,5.52991 -4.66153,8.1079 z"
       fill="#fbbebe"
       style="stroke-width:0.703458" />
    <path
       id="a363f2f7-2464-40a1-ad01-344825aa0b75"
       data-name="Path 1423"
       d="m 353.25391,242.2915 c 2.19026,-0.83335 4.60448,-0.53191 6.9525,-0.21641 7.55817,1.03008 15.22762,2.08687 22.23295,5.09914 3.28892,1.40531 6.42008,3.28139 8.64345,6.0428 1.97194,2.4874 3.12411,5.53269 4.21643,8.53161 l 2.5262,6.90426 a 33.311969,33.235668 0 0 1 2.20365,8.09174 c 0.78948,8.26249 -4.87422,16.05208 -11.99786,20.34459 -7.12364,4.2925 -15.51004,5.82077 -23.68022,7.42211 -8.17018,1.60134 -16.37205,3.37273 -24.50843,5.25022 a 98.657919,98.43194 0 0 1 -11.53093,2.26395 c -8.70894,0.9837 -17.81227,-0.46587 -26.08739,2.40869 -3.28891,1.14883 -6.51868,2.85487 -9.93014,3.64886 a 61.795425,61.653883 0 0 1 -6.86729,1.04345 l -15.66144,1.78473 a 85.436481,85.240788 0 0 1 -9.60337,0.73497 c -6.84052,0 -13.56978,-1.6161 -20.21241,-3.23219 a 5.1113526,5.099645 0 0 1 -1.97194,-0.79401 c -1.05217,-0.82701 -1.28247,-2.29064 -1.43389,-3.61584 q -1.00639,-8.80072 -1.76066,-17.62041 c -0.15775,-1.9098 -0.27607,-3.97701 0.76977,-5.58468 1.31556,-1.96742 3.8812,-2.58575 6.22288,-2.96659 a 162.38943,162.01747 0 0 1 30.04747,-2.08055 c 3.82134,-3.81259 10.12312,-3.83227 15.12903,-5.9065 a 45.000518,44.897444 0 0 0 5.33481,-2.89422 69.722655,69.562955 0 0 1 29.29039,-9.23355 27.265183,27.202732 0 0 0 5.99259,-0.85302 c 3.87346,-1.20083 7.40676,-4.46957 11.38586,-3.66855 0.49298,-1.35822 0.83526,-3.17668 1.97194,-4.10841 0.56341,-0.4792 1.26275,-0.80031 1.7825,-1.31255 1.09864,-1.10879 1.19725,-2.85487 1.03245,-4.40352 -0.1648,-1.54865 -0.53313,-3.13664 -0.1317,-4.64664 a 6.4375262,6.422781 0 0 1 0.73032,-1.62101 c 1.96631,-3.39524 4.94607,-5.14063 8.91248,-4.81247 z"
       fill="#2f2e41"
       style="stroke-width:0.703458" />
    <path
       id="b53ad979-99f4-4c6e-a0f8-957060c42096"
       data-name="Path 1430"
       d="m 199.54029,132.9047 a 6.8081739,6.7925797 0 0 0 -1.45994,2.33 110.41496,110.16206 0 0 0 -9.27447,37.81393 3.7889467,3.7802681 0 0 1 -0.42749,1.8311 8.030567,8.012173 0 0 1 -0.96696,1.04345 3.6311913,3.6228741 0 0 0 0.43427,5.10516 q 0.0897,0.0754 0.18408,0.14504 c 1.08527,-2.03769 3.68331,-2.7038 5.99259,-2.88087 11.05697,-0.87269 21.85758,4.25948 32.94764,3.87231 -0.78244,-2.69748 -1.90785,-5.28956 -2.54591,-8.01936 -2.822,-12.12145 4.21643,-25.31867 -0.0986,-36.99393 -0.86201,-2.33632 -2.30223,-4.63329 -4.57138,-5.65706 a 12.177105,12.149213 0 0 0 -2.92693,-0.77291 c -2.80227,-0.50521 -8.38076,-2.66445 -11.09006,-1.79809 -1.00006,0.32182 -1.39445,1.25985 -2.22336,1.8269 -1.25923,0.80244 -2.92974,1.09755 -3.97347,2.15433 z"
       fill="#3475dd"
       style="stroke-width:0.703458" />
    <path
       id="a1197c30-bfd4-4098-bcf9-2468e7a33bf1"
       data-name="Path 1421"
       d="m 353.0989,172.95938 c -3.3347,-1.42428 -9.6428,-0.55159 -13.29372,-0.65628 -5.01788,-0.11805 -10.31959,0.41386 -14.43743,3.28138 -5.00592,3.49288 -7.30815,9.90318 -7.26872,16.00009 0.0394,6.09692 2.09167,11.9753 4.28898,17.66678 1.22331,3.20901 2.51282,6.39203 2.94031,9.77178 0,0 -43.74966,5.17504 -46.39066,7.29775 -2.64099,2.12271 -3.82134,6.36884 -1.79587,8.99394 2.02546,2.62511 65.22552,5.26076 73.54641,3.50413 a 2.6311348,2.6251082 0 0 0 2.69663,-2.55273 c 0.84089,-4.89538 1.5184,-9.79779 1.97195,-14.73953 0.24014,-2.54641 0.4148,-5.09282 0.59228,-7.64556 l 1.89024,-27.08443 a 23.285571,23.232236 0 0 0 -0.0788,-5.72942 c -0.49297,-2.57799 -2.02264,-6.94851 -4.66153,-8.1079 z"
       fill="#fbbebe"
       style="stroke-width:0.703458" />
    <path
       id="ebe46053-6aac-4aa7-8615-21a6fa79538d"
       data-name="Path 1430"
       d="m 342.76733,130.75037 c -0.82892,-0.56705 -1.22331,-1.50508 -2.22336,-1.8269 -2.70931,-0.86636 -8.2878,1.29288 -11.09007,1.79809 a 12.17714,12.149248 0 0 0 -2.92693,0.77291 c -2.26914,1.02377 -3.70937,3.32074 -4.57138,5.65706 -4.31503,11.67526 2.72339,24.87248 -0.0986,36.99393 -0.63806,2.7298 -1.76348,5.32188 -2.54592,8.01936 11.09006,0.38717 21.89068,-4.745 32.94764,-3.87231 2.30929,0.17707 4.90732,0.84318 5.9926,2.88087 q 0.0944,-0.0696 0.18408,-0.14504 a 3.6311913,3.6228741 0 0 0 0.43427,-5.10516 8.029588,8.0111962 0 0 1 -0.96696,-1.04345 3.7888974,3.780219 0 0 1 -0.42749,-1.8311 110.4148,110.16189 0 0 0 -9.27446,-37.81393 6.8081739,6.7925797 0 0 0 -1.45995,-2.33 c -1.04372,-1.05678 -2.71424,-1.35189 -3.97347,-2.15433 z"
       fill="#3475dd"
       style="stroke-width:0.703458" />
    <polygon
       points="220.005,512.846 299.243,523.378 296.513,543.921 215.975,543.166 "
       fill="#ffb6b6"
       id="polygon20"
       transform="matrix(0.7042652,0,0,0.70265208,150.51612,-59.210205)" />
    <path
       d="m 365.91784,306.72042 -6.20035,46.5438 -0.59005,-0.0782 a 18.318388,18.27643 0 0 1 -15.74488,-20.52334 l 1.6e-4,-9.6e-4 3.78705,-28.42735 z"
       fill="#2f2e41"
       id="path22"
       style="stroke-width:0.703458" />
    <path
       id="a0b0f7ea-4ed9-4447-aa64-e2335b2c3196"
       data-name="Path 1427"
       d="m 227.82288,249.59623 c 0,0.65628 -1.03245,0 -1.12682,-0.70265 -0.72329,-5.30924 -4.94676,-9.68676 -9.86675,-11.81299 -4.92,-2.12623 -10.52455,-2.23795 -15.85232,-1.73274 -8.05749,0.76097 -17.10236,3.83929 -20.04901,11.35346 -0.69723,1.75662 -7.22858,17.39766 -6.59122,20.91513 1.717,9.38462 8.14975,17.41102 15.94456,22.9697 7.79481,5.55868 16.90237,8.87942 25.98739,11.87482 a 450.69414,449.66183 0 0 0 73.67107,17.55506 c 4.05164,0.61061 8.14342,1.17483 12.02391,2.47404 3.47274,1.16149 6.72221,2.90055 10.11678,4.2658 7.8934,3.16193 16.38543,4.2918 24.79787,5.40129 1.43389,0.18409 3.07835,0.31479 4.13757,-0.65628 1.36839,-1.26477 0.91554,-3.47181 0.52608,-5.28956 a 28.514289,28.448977 0 0 1 3.36146,-20.1865 c 1.40853,-2.36231 3.23962,-4.78436 2.97341,-7.51838 -0.31552,-3.18933 -3.49949,-5.44696 -6.67009,-5.95919 -3.17061,-0.51223 -6.39333,0.24312 -9.57802,0.65628 a 5.1305719,5.1188203 0 0 1 -3.25581,-0.32181 6.5037693,6.4888724 0 0 1 -1.27613,-1.12846 14.42476,14.391719 0 0 0 -16.79955,-2.34265 c -1.17753,0.65628 -2.95791,-0.80734 -4.18333,-1.35822 l -13.83318,-6.24798 c -15.89174,-7.17267 -31.86236,-14.37908 -48.67529,-18.92032 a 10.22205,10.198637 0 0 1 -3.7495,-1.55567 c -0.83526,-0.65628 -1.43388,-1.54584 -2.20365,-2.27729 -1.67756,-1.58167 -4.01431,-2.21195 -6.02499,-3.33409 -2.01067,-1.12214 -4.26503,-3.8702 -3.80444,-6.1208 z"
       fill="#2f2e41"
       style="stroke-width:0.703458" />
    <ellipse
       cx="263.63297"
       cy="230.2753"
       fill="#fbbebe"
       id="circle25"
       rx="9.8597136"
       ry="9.8371296"
       style="stroke-width:0.703458" />
    <ellipse
       cx="285.46521"
       cy="230.2753"
       fill="#fbbebe"
       id="circle27"
       rx="9.8597136"
       ry="9.8371296"
       style="stroke-width:0.703458" />
    <path
       d="M 346.32676,252.44197 H 210.86919 a 5.9720279,5.9583491 0 0 1 -5.96526,-5.95127 v -81.99003 a 5.9720279,5.9583491 0 0 1 5.96526,-5.95127 h 135.45757 a 5.9720279,5.9583491 0 0 1 5.96528,5.95127 v 81.99003 a 5.9720279,5.9583491 0 0 1 -5.96528,5.95127 z"
       fill="#3f3d56"
       id="path29"
       style="stroke-width:0.703458" />
    <ellipse
       id="e793da3b-cee2-4a15-ae11-6dab45a6c728"
       data-name="Ellipse 263"
       cx="278.26941"
       cy="205.4957"
       fill="#ffffff"
       rx="3.9467022"
       ry="3.9376624"
       style="stroke-width:0.703458" />
    <ellipse
       cx="127.97713"
       cy="152.4543"
       fill="#6c63ff"
       opacity="0.74"
       id="circle114"
       rx="21.546656"
       ry="21.497303"
       style="stroke-width:0.703458" />
    <ellipse
       cx="102.95425"
       cy="151.36884"
       fill="#3f3d56"
       opacity="0.74"
       id="circle112"
       rx="21.546656"
       ry="21.497303"
       style="stroke-width:0.703458" />
    <ellipse
       cx="117.09761"
       cy="130.74512"
       fill="#ff6584"
       opacity="0.74"
       id="circle116"
       rx="21.546656"
       ry="21.497303"
       style="stroke-width:0.703458" />
    <ellipse
       cx="167.00737"
       cy="125.04643"
       fill="#3f3d56"
       id="circle120"
       rx="2.5110788"
       ry="2.5053272"
       style="stroke-width:0.703458" />
    <rect
       x="63.028667"
       y="168.8611"
       width="57.999855"
       height="1.2529219"
       transform="matrix(0.9542236,-0.29909418,0.30034529,0.95383054,0,0)"
       fill="#3f3d56"
       id="rect118"
       style="stroke-width:0.703459" />
    <path
       d="m 484.81492,200.75379 c -14.09939,-22.6496 -17.73431,-53.23307 -3.48354,-75.78782 A 123.12638,122.84435 0 0 0 534.45781,190.57 c 9.62914,5.72214 20.93625,11.08623 24.75043,21.60093 2.37341,6.54244 1.21462,13.94554 -1.64175,20.29265 -2.85667,6.34737 -7.28181,11.84186 -11.65866,17.25883 l -0.34634,1.70221 C 521.78897,239.2451 498.91431,223.40339 484.81492,200.75379 Z"
       fill="#e6e6e6"
       id="path24"
       style="stroke-width:0.703458" />
    <path
       d="m 481.84169,125.19778 a 105.23986,104.9988 0 0 0 16.86812,62.37091 45.319846,45.21604 0 0 0 9.31819,10.68993 25.99302,25.933482 0 0 0 12.60493,5.30361 c 4.27841,0.65779 8.7311,0.83631 12.77472,2.52028 a 15.915548,15.879094 0 0 1 8.7696,9.59635 c 1.88578,5.25152 1.7678,10.86589 1.4612,16.35226 -0.34044,6.09158 -0.79077,12.41345 1.63152,18.17319 0.29349,0.69788 -0.80902,1.11143 -1.10207,0.41461 -4.21438,-10.02097 -0.0488,-20.9998 -2.20261,-31.34903 -1.00498,-4.82914 -3.47472,-9.38537 -8.03925,-11.65914 -3.99148,-1.98831 -8.58297,-2.17633 -12.92071,-2.80498 a 27.736555,27.673024 0 0 1 -12.51858,-4.72766 41.897145,41.801179 0 0 1 -9.69575,-10.29306 102.10142,101.86756 0 0 1 -13.69725,-28.75604 107.10594,106.86061 0 0 1 -4.41336,-36.02817 c 0.0374,-0.75339 1.19846,-0.5515 1.16132,0.19696 z"
       fill="#ffffff"
       id="path26"
       style="stroke-width:0.703458" />
    <path
       d="m 494.47739,181.83807 a 15.78933,15.753164 0 0 1 -19.74301,-5.3014 c -0.42803,-0.62392 0.52364,-1.31685 0.95223,-0.69211 a 14.62058,14.587092 0 0 0 18.37522,4.89398 c 0.68372,-0.32623 1.09538,0.77517 0.41556,1.09953 z"
       fill="#ffffff"
       id="path28"
       style="stroke-width:0.703458" />
    <path
       d="m 518.41962,203.5138 a 30.432707,30.363001 0 0 0 -0.44248,-22.12324 c -0.291,-0.69889 0.81141,-1.11265 1.10207,-0.41461 a 31.654544,31.58204 0 0 1 0.41353,23.02217 c -0.26459,0.71015 -1.33628,0.22198 -1.07312,-0.48432 z"
       fill="#ffffff"
       id="path30"
       style="stroke-width:0.703458" />
    <path
       d="m 483.12536,149.53943 a 8.9375267,8.9170553 0 0 0 6.31835,-5.64391 c 0.25544,-0.71314 1.3269,-0.22418 1.07312,0.48432 a 10.015207,9.9922679 0 0 1 -6.97591,6.25914 0.60868936,0.60729516 0 0 1 -0.75881,-0.34247 0.5918856,0.59052988 0 0 1 0.34325,-0.75708 z"
       fill="#ffffff"
       id="path32-0"
       style="stroke-width:0.703458" />
    <path
       d="m 571.0659,113.39392 c -0.14682,0.44983 -0.29362,0.89965 -0.43454,1.35752 a 117.70243,117.43283 0 0 0 -4.32341,18.55449 c -0.08,0.48527 -0.15383,0.97827 -0.21973,1.46483 a 124.08457,123.80036 0 0 0 2.2183,45.52577 120.50068,120.22467 0 0 0 5.59716,17.39254 c 3.18388,7.79926 7.25799,16.0029 7.66162,24.15606 a 20.671592,20.624244 0 0 1 -0.004,2.55268 l -33.89207,27.31631 c -0.10825,0.0236 -0.21066,0.055 -0.31929,0.0789 l -1.30322,1.1524 c -0.13927,-0.28299 -0.27762,-0.57948 -0.41693,-0.86245 -0.0814,-0.16382 -0.15539,-0.33372 -0.23687,-0.49754 -0.0519,-0.11114 -0.10353,-0.22263 -0.15672,-0.31996 -0.0174,-0.037 -0.0345,-0.0742 -0.0457,-0.10341 -0.0532,-0.0973 -0.0923,-0.19338 -0.13927,-0.28299 q -1.16692,-2.4827 -2.30291,-4.9904 c -0.007,-0.008 -0.007,-0.008 -0.005,-0.0215 -5.73792,-12.75301 -10.4591,-26.09601 -13.00035,-39.72975 -0.0763,-0.41021 -0.15927,-0.82785 -0.2201,-1.25055 a 114.98616,114.72279 0 0 1 -1.81042,-18.63416 101.65529,101.42246 0 0 1 0.39984,-10.25413 84.530894,84.337277 0 0 1 6.49768,-25.55981 c 6.97113,-16.2007 19.05783,-29.99668 35.21589,-36.55572 0.4134,-0.16748 0.81966,-0.32924 1.23938,-0.48901 z"
       fill="#e6e6e6"
       id="path34"
       style="stroke-width:0.703458" />
    <path
       d="m 571.3372,113.8845 a 105.2399,104.99885 0 0 0 -24.16956,59.93219 45.319838,45.216033 0 0 0 0.98919,14.13264 25.99302,25.933482 0 0 0 6.86386,11.80632 c 3.01913,3.09519 6.46661,5.91243 8.67904,9.68596 a 15.915569,15.879115 0 0 1 1.2111,12.92995 c -1.66334,5.32581 -5.14555,9.73769 -8.70111,13.93409 -3.94779,4.65929 -8.12229,9.43642 -9.66397,15.49031 -0.18678,0.73351 -1.31663,0.40144 -1.13013,-0.33095 2.68224,-10.53271 12.63336,-16.79649 17.15896,-26.35352 2.11172,-4.45948 2.88925,-9.58092 0.61684,-14.13827 -1.98712,-3.98519 -5.53972,-6.89338 -8.6238,-10.00097 a 27.736611,27.673081 0 0 1 -7.14247,-11.29456 41.897165,41.8012 0 0 1 -1.53015,-14.04257 102.1012,101.86733 0 0 1 6.41637,-31.18791 107.10614,106.86081 0 0 1 18.21741,-31.41755 c 0.48448,-0.57908 1.28974,0.27957 0.80842,0.85487 z"
       fill="#ffffff"
       id="path36"
       style="stroke-width:0.703458" />
    <path
       d="m 547.24643,166.69871 a 15.789351,15.753185 0 0 1 -12.56456,-16.0923 0.58942066,0.5880706 0 0 1 1.17795,0.0194 14.62058,14.587092 0 0 0 11.71832,14.94536 c 0.74278,0.15022 0.40682,1.27691 -0.33171,1.12754 z"
       fill="#ffffff"
       id="path38"
       style="stroke-width:0.703458" />
    <path
       d="m 553.28271,198.38742 a 30.432644,30.362938 0 0 0 12.997,-17.92996 c 0.1894,-0.73283 1.31931,-0.40098 1.13014,0.33094 a 31.654558,31.582054 0 0 1 -13.56257,18.63032 c -0.63982,0.40808 -1.2009,-0.62545 -0.56457,-1.03131 z"
       fill="#ffffff"
       id="path40"
       style="stroke-width:0.703458" />
    <path
       d="m 557.67312,134.091 a 8.9375338,8.9170624 0 0 0 8.45067,-0.71097 c 0.63431,-0.41598 1.19474,0.61805 0.56456,1.03131 a 10.015229,9.992289 0 0 1 -9.34694,0.8072 0.6086964,0.60730218 0 0 1 -0.39922,-0.72925 0.59187855,0.59052285 0 0 1 0.73093,-0.39829 z"
       fill="#ffffff"
       id="path42"
       style="stroke-width:0.703458" />
    <path
       d="m 589.31174,220.68617 h -74.45339 a 1.9598292,1.9553402 0 0 0 -1.95864,1.94788 v 4.40313 a 264.19774,263.59259 0 0 0 8.90805,27.69011 h 67.504 a 1.950399,1.9459317 0 0 0 1.95234,-1.94788 v -30.14536 a 1.9544486,1.949972 0 0 0 -1.95236,-1.94788 z"
       fill="#6c63ff"
       id="path130"
       style="stroke-width:0.703458" />
    <path
       d="M 582.21796,264.50431 H 525.7815 c 0.67172,1.5721 1.356,3.13166 2.06539,4.68495 h 54.37107 c 3.06351,0.0438 3.03213,-4.7288 0,-4.68495 z"
       fill="#e4e4e4"
       id="path132"
       style="stroke-width:0.703458" />
    <path
       d="m 582.21796,275.2396 h -51.53983 q 1.12993,2.35814 2.3227,4.68498 h 49.21713 c 3.06351,0.0438 3.03213,-4.72254 0,-4.68498 z"
       fill="#e4e4e4"
       id="path134"
       style="stroke-width:0.703458" />
    <path
       d="M 582.21796,285.98119 H 536.1711 c 0.84119,1.5721 1.70752,3.13166 2.58641,4.68495 h 43.46045 c 3.06351,0.0439 3.03213,-4.7288 0,-4.68495 z"
       fill="#e4e4e4"
       id="path136"
       style="stroke-width:0.703458" />
  </g>
</svg>
